<svg class="wnv-icon" data-name="WNV Icon" xmlns="http://www.w3.org/2000/svg" viewBox="0 0 102 76.73">
  <title>Warranty Now Void</title>
  <path class="chunk" d="M283,413.46h.29q-4.29-13-8-27.55-3.18-12.54-5.73-24.79A27.92,27.92,0,0,0,283,413.46Zm12.5,0h22q-2.88-7.75-5.61-16.29t-5.36-17.11l-5.37,17.11Q298.42,405.71,295.5,413.46Zm35.18-55.79h-47.8q.8,4.62,1.76,9.57,1,5.16,2.06,10.34t2.19,10.06c.74,3.25,1.51,6.25,2.28,9,1-2.64,2-5.45,2.95-8.41s1.89-5.94,2.78-8.91,1.73-5.82,2.49-8.57,1.45-5.2,2.07-7.36h11q1,3.32,2.19,7.48t2.57,8.62c.91,3,1.84,5.93,2.77,8.9s1.86,5.71,2.74,8.25q1.06-4.14,2.18-9c.75-3.24,1.44-6.6,2.1-10.06L329,367.24C329.58,363.94,330.14,360.75,330.68,357.67Zm-1.12,55.8h-9.63c.7,1.16,1.16,3.25.84,7-.49,5.68-7.26,11.9-5.89,13.7s20.31-7.21,23.7-22.27a28,28,0,0,0,4.74-50.5q-2.55,12.1-5.72,24.5Q333.88,400.43,329.56,413.47Z" transform="translate(-255.2 -357.67)" fill="#400137"/>
</svg>